<svg xmlns="http://www.w3.org/2000/svg" fill="none" viewBox="0 0 64 64"><g clip-path="url(#a)"><circle cx="32" cy="32" r="32" fill="#FF4A80"/><g fill-rule="evenodd" clip-path="url(#b)" clip-rule="evenodd"><path fill="#fff" d="M48.193 23.524c.013-.101-.1-.075-.167-.075-.138-.002-.277 0-.416.003-.247.005-.495.008-.742.022.007-.12.02-.241.028-.362.005-.079-.002-.157.001-.236.003-.072.023-.143.036-.213.008-.046.026-.088.037-.133.02-.078.006-.15.002-.228-.003-.076.02-.122.04-.193.024-.09.025-.186.028-.279.004-.106.008-.214.026-.319.015-.086.053-.148.081-.226a.835.835 0 0 0 .028-.263c0-.06-.024-.063-.049-.108-.012-.024-.008-.085-.006-.113a.688.688 0 0 1 .08-.28.446.446 0 0 0 .065-.254c-.004-.044-.024-.085-.024-.13 0-.047.018-.09.03-.134.03-.106.024-.223.021-.333-.004-.18-.077-.39.02-.558.082-.142.07-.294.086-.454.004-.05.014-.09-.013-.128-.022-.033-.026-.044-.018-.092.019-.104.056-.203.057-.31 0-.08-.048-.137-.047-.216 0-.202.083-.4.112-.6.013-.087.002-.23-.109-.257-.045-.01-.104 0-.15.002-.593.016-1.185.045-1.777.068-.79.03-1.579.05-2.368.062-.808.012-1.615.015-2.423.011-.684-.003-1.367-.01-2.051-.014a120.725 120.725 0 0 0-5.311.087 194.822 194.822 0 0 0-4.892.256c-.765.051-1.53.11-2.295.167a169.91 169.91 0 0 1-8.008.411c-.18.005-.335.015-.488.125a1.223 1.223 0 0 0-.356.445c-.028.054-.054.11-.077.165-.025.058-.036.116-.055.174-.012.037-.02.039.004.076.014.021.035.039.034.065-.002.046-.045.093-.05.144-.005.05.007.084-.039.111-.051.03-.053.049-.052.108.001.05-.017.091-.027.14-.012.056.016.092.034.142.014.041.014.086-.02.117-.028.026-.06.025-.06.073 0 .029.02.054.024.082.004.025-.005.048-.009.073a.18.18 0 0 0 .025.132c.023.033.058.05.044.097-.013.044-.067.07-.09.11-.06.099-.002.154.029.245.028.082-.041.172-.073.242-.021.048-.002.102-.004.152-.002.052-.019.1-.03.15-.011.045-.018.058-.048.088-.038.036-.05.077-.068.125a.409.409 0 0 0-.027.125c-.001.047.015.09.008.138-.004.032-.01.054-.004.087a.583.583 0 0 1 .007.178c-.01.116-.035.23-.035.348 0 .042-.001.065-.02.102-.019.04-.02.067-.027.11-.011.072-.081.098-.075.178.004.058.025.11.023.168-.003.066-.018.125-.033.189-.009.04 0 .069.009.107a.282.282 0 0 1-.016.17c-.017.038-.045.07-.055.11-.012.047-.002.094-.009.14-.017.111-.008.222-.02.335-.006.06-.018.125-.016.186.002.055.017.11.023.165.007.06-.003.115-.01.174-.016.132-.035.264-.054.396-.005.04-.008.078-.01.118a7.675 7.675 0 0 0-.004.144c0 .03-.014.098.006.124.015.02.019.014.045.016.063.003.125.003.188.005.206.007.41.013.616.022l-.027.147c-.02.096-.098.201-.074.3.012.05.022.069-.012.111-.028.035-.06.061-.08.101-.017.032-.052.117.004.13.021.004.035-.018.058-.006.026.013.026.046.022.07-.018.112-.145.154-.166.257-.019.096.053.177.035.275a.326.326 0 0 0-.002.144c.011.05.038.124-.013.162-.018.013-.044.013-.063.025-.026.016-.04.04-.055.064-.011.017-.01.025-.025.035-.013.01-.038.005-.05.016-.031.026-.006.08-.006.118-.001.054-.018.077.012.127.023.038.032.055-.008.083-.053.037-.068.044-.09.11-.02.06-.034.091-.008.15.022.047.037.083-.003.122-.032.03-.048.033-.055.08-.01.067-.01.135-.025.2-.024.1-.063.194-.092.291a.494.494 0 0 0-.03.165c.004.047.025.092.03.14a.274.274 0 0 1-.012.117c-.018.064 0 .108.01.173.016.106-.083.183-.085.29 0 .051.03.093.04.141.01.059-.05.09-.028.145.02.05.07.084.04.145-.027.052-.06.057-.047.121.013.061.008.08-.014.138-.009.025-.014.05-.028.071-.01.016-.045.035-.047.054-.005.054.06.042.004.1-.056.058-.024.06-.018.13.006.09-.128.06-.077.165.021.043.08.073.076.126-.007.062-.07.049-.097.089-.058.084.07.103.088.172a.286.286 0 0 1-.014.157.926.926 0 0 0-.023.084c-.004.019-.006.04-.014.057-.008.018-.028.03-.034.048-.014.042.026.076.031.116.007.049-.005.099.009.149.012.042.04.047.085.06a5.323 5.323 0 0 0 .452.104c.455.085.918.123 1.379.153.824.053 1.649.08 2.474.067a37.168 37.168 0 0 0 2.298-.114c.922-.07 1.843-.159 2.764-.243a96.315 96.315 0 0 1 3.188-.25c1.022-.06 2.046-.1 3.07-.14.916-.035 1.833-.06 2.75-.064.63-.003 1.26.006 1.889.02.568.013 1.135.027 1.703.03.724.005 1.448-.01 2.172-.035a95.44 95.44 0 0 0 1.541-.067c.34-.017.68-.052 1.02-.066.457-.018.918-.006 1.376 0a223.741 223.741 0 0 1 2.484.042c.099.002.208.018.306.006.05-.005.065-.029.069-.075.002-.024 0-.049.002-.073.002-.02.002-.038.013-.055.017-.028.05-.037.067-.066.023-.041.014-.095.015-.14a.835.835 0 0 1 .027-.176.327.327 0 0 0 .009-.143c-.01-.06-.038-.116-.035-.18a.185.185 0 0 1 .043-.117c.034-.04.055-.062.052-.118-.001-.043-.02-.085-.02-.128 0-.05.017-.098.019-.147a.338.338 0 0 0-.027-.165c-.024-.049-.047-.079-.034-.136.012-.052.052-.088.076-.134a.446.446 0 0 0 .052-.16c.008-.094-.03-.17-.05-.258-.01-.052.006-.102.016-.153.01-.053.017-.106.037-.156.017-.044.04-.081.044-.129.005-.057-.004-.114 0-.172.003-.062.015-.122.027-.184.01-.049.011-.107.033-.152.018-.04.045-.075.053-.12.01-.053.002-.11.012-.163.013-.07.03-.136.031-.209.003-.07.013-.135.029-.204.023-.1.013-.204.037-.305a.332.332 0 0 0 .009-.143c-.011-.06-.038-.117-.035-.18a.186.186 0 0 1 .043-.118c.035-.039.054-.06.052-.117-.001-.044-.02-.085-.02-.129 0-.052.018-.104.02-.157a.33.33 0 0 0-.028-.154c-.024-.049-.047-.079-.034-.137.012-.051.052-.087.076-.133a.445.445 0 0 0 .052-.16c.008-.094-.03-.17-.05-.258-.017-.087.02-.227.053-.309.017-.044.04-.081.044-.129.005-.057-.004-.115 0-.172.003-.063.014-.123.027-.184.01-.046.01-.1.029-.144.017-.041.044-.074.055-.12.011-.048.006-.102.012-.153.01-.069.026-.134.032-.204.004-.062.007-.124.008-.186Z"/><path fill="#3D4550" d="M21.665 19.94h-1.197v8.98h5.05v-1.124h-3.853v-7.855ZM29.035 28.054c-1.029 0-2.07-.801-2.07-2.333 0-1.345.87-2.322 2.07-2.322 1.185 0 2.045.977 2.045 2.322 0 1.532-1.028 2.333-2.045 2.333Zm-.012-5.74c-1.852 0-3.195 1.433-3.195 3.407 0 .934.305 1.789.86 2.407.587.653 1.394.999 2.335.999 1.851 0 3.195-1.433 3.195-3.406 0-1.974-1.344-3.407-3.195-3.407ZM35.368 27.526l-1.843-5.09-.007-.018h-1.197l2.477 6.484.007.018h1.113l2.47-6.464.014-.038h-1.184l-1.85 5.108ZM41.344 23.4c.755 0 1.562.466 1.573 1.772h-3.372c.09-1.218.992-1.773 1.799-1.773Zm2.727 2.08c0-2.187-1.35-3.166-2.69-3.166-.778 0-1.506.306-2.049.86-.608.621-.93 1.502-.93 2.547 0 2.34 1.564 3.406 3.017 3.406 1.051 0 2.036-.551 2.635-1.473l.015-.023-.868-.605-.015.027c-.362.646-.984 1.001-1.754 1.001-1.069 0-1.807-.724-1.888-1.848h4.527v-.727ZM42.514 41.848l.55-.43c1.695-1.32 3.449-2.686 3.449-4.682 0-1.563-1.116-2.655-2.714-2.655-1.403 0-2.914.95-2.914 3.035 0 .1.007.212.017.282l1.145-.447c0-1.147.844-1.747 1.677-1.747.81 0 1.628.521 1.628 1.684 0 1.506-1.52 2.686-3.625 4.318-.3.232-.613.475-.936.729l-.018.015v1.11h5.978v-1.212h-4.237ZM13.802 37.939l-.104-.042c-.947-.384-1.618-.722-1.618-1.577 0-.841.665-1.282 1.322-1.282.53 0 1.202.284 1.464.905l1.115-.436-.017-.042c-.439-1.099-1.596-1.59-2.549-1.59-1.247 0-2.59.793-2.59 2.534 0 1.7 1.292 2.23 2.33 2.656l.128.052c1.06.441 1.756.796 1.756 1.666 0 .903-.752 1.307-1.498 1.307-.737 0-1.617-.396-1.877-1.508l-.012-.05-1.182.452c.356 1.39 1.532 2.283 3.02 2.283.749 0 1.446-.23 1.962-.648.584-.472.893-1.147.893-1.95 0-1.708-1.351-2.251-2.543-2.73ZM28.365 39.758c0 1.508-1.01 2.298-2.01 2.298-1.011 0-2.035-.79-2.035-2.298 0-1.325.856-2.286 2.035-2.286 1.165 0 2.01.961 2.01 2.286Zm-2.022-3.406c-1.852 0-3.195 1.432-3.195 3.406 0 1.973 1.343 3.406 3.195 3.406 1.851 0 3.195-1.433 3.195-3.406 0-1.974-1.344-3.406-3.195-3.406ZM34.379 40.223c0 1.209-.871 1.86-1.691 1.86-.625 0-1.291-.378-1.291-1.44v-4.188H30.26v4.188c0 1.86 1.186 2.52 2.202 2.52.817 0 1.538-.397 1.911-1.046l.217.894h.926v-6.556H34.38v3.768ZM38.485 34.597l-1.154.445v1.422h-1.093v1.053h1.093v3.588c0 1.791 1.018 2.059 1.625 2.059.27 0 .55-.043.853-.13l.036-.01v-1.146l-.076.05a1.094 1.094 0 0 1-.558.183c-.462 0-.726-.335-.726-.917v-3.677h1.36v-1.053h-1.36v-1.867ZM52.038 39.684v-2.653l-1.171.456v2.197h-2.63l3.207-5.5h-1.301l-3.392 5.803v.889h4.116v2.184h1.171v-2.184h1.515v-1.192h-1.515ZM21.808 41.041a1.853 1.853 0 0 1-1.645 1.002c-.964 0-1.937-.71-1.937-2.298 0-1.095.582-2.273 1.862-2.273.638 0 1.205.345 1.505.907l1.082-.418-.02-.042c-.449-.967-1.432-1.567-2.567-1.567-.799 0-1.538.3-2.083.845-.614.615-.938 1.5-.938 2.56 0 2.34 1.579 3.407 3.046 3.407 1.14 0 2.151-.628 2.704-1.68l.021-.041-.009-.004-1.02-.398Z"/></g></g><defs><clipPath id="a"><path fill="#fff" d="M0 0h64v64H0z"/></clipPath><clipPath id="b"><path fill="#fff" d="M10 10h44v44H10z"/></clipPath></defs></svg>
