<svg xmlns:xlink="http://www.w3.org/1999/xlink" xmlns="http://www.w3.org/2000/svg" viewBox="0 0 99 61" width="99"  height="61" ><g fill="none" fill-rule="evenodd"><path d="M85.795 14.934c.029-.23-.228-.17-.38-.171-.314-.004-.63.002-.944.008-.563.01-1.128.017-1.69.05.017-.275.047-.548.064-.822.012-.18-.003-.358.004-.538.007-.161.052-.324.082-.483.018-.103.057-.2.084-.301.046-.176.012-.341.005-.518-.007-.173.045-.276.089-.437.055-.206.057-.423.065-.634.01-.242.018-.486.059-.725.033-.196.12-.335.185-.513.062-.17.063-.42.062-.598 0-.137-.055-.142-.11-.244-.03-.054-.018-.193-.015-.256.013-.213.077-.449.18-.636.098-.177.167-.369.15-.577-.01-.101-.054-.194-.054-.297 0-.106.04-.204.068-.304.068-.24.054-.506.049-.755-.01-.41-.177-.886.043-1.267.187-.322.16-.67.195-1.032.012-.114.032-.205-.027-.291-.052-.075-.061-.1-.042-.209.042-.237.128-.459.129-.703 0-.183-.108-.312-.107-.49.003-.46.189-.91.255-1.361.03-.2.006-.526-.247-.585-.102-.024-.237 0-.342.003-1.347.036-2.694.104-4.04.156-1.795.07-3.59.114-5.385.14-1.837.027-3.673.035-5.51.026-1.554-.007-3.11-.024-4.664-.032a275.342 275.342 0 00-12.077.198 442.423 442.423 0 00-11.123.582c-1.74.114-3.48.247-5.218.376a386.313 386.313 0 01-17.224.909l-.986.027c-.41.01-.764.033-1.11.283-.356.258-.612.623-.81 1.01a5.675 5.675 0 00-.176.376c-.055.13-.082.261-.125.395-.027.082-.045.087.01.172.032.048.08.087.077.147-.005.104-.102.212-.113.327-.011.113.016.191-.089.253-.116.069-.12.11-.118.244.002.116-.04.207-.063.318-.027.127.037.208.078.324.033.092.031.194-.045.264-.065.06-.136.057-.136.166 0 .065.046.122.055.186.008.058-.013.109-.02.166a.41.41 0 00.056.3c.052.076.132.114.1.22-.03.1-.153.16-.207.25-.136.225-.003.35.067.556.064.187-.093.392-.165.55-.049.108-.005.232-.01.345-.005.119-.042.228-.07.342-.023.1-.038.131-.108.199-.084.081-.114.175-.152.282a.924.924 0 00-.063.285c-.003.107.033.205.019.313-.01.073-.025.124-.01.197.028.143.03.258.016.405-.024.263-.08.524-.08.79a.446.446 0 01-.044.233c-.044.09-.047.15-.062.249-.025.163-.185.223-.171.405.01.13.057.247.052.38-.006.15-.04.284-.073.429-.021.092 0 .157.018.244a.638.638 0 01-.036.385c-.038.087-.102.16-.126.252-.025.104-.002.213-.019.318-.04.25-.018.503-.045.758-.015.138-.042.284-.037.422.004.126.039.252.053.377.015.134-.007.26-.023.394-.036.3-.08.6-.122.9-.013.09-.018.177-.022.268-.005.109-.008.218-.01.327-.002.066-.033.222.013.282.033.043.043.032.102.035.142.007.285.008.428.012.467.015.934.03 1.4.049-.02.111-.037.223-.06.334-.047.218-.224.458-.17.68.029.114.05.158-.028.255-.063.078-.136.137-.182.23-.036.07-.116.263.01.292.05.01.081-.039.132-.013.059.03.06.106.051.161-.041.252-.331.348-.377.581-.044.218.12.404.078.626a.738.738 0 00-.004.326c.026.116.087.283-.03.368-.04.03-.099.03-.142.057-.06.036-.09.09-.126.146-.025.037-.022.055-.056.079-.03.021-.087.01-.116.036-.069.06-.01.184-.012.268-.002.122-.04.174.028.289.051.086.073.124-.019.188-.12.084-.154.1-.205.252-.047.135-.078.206-.017.338.05.107.084.19-.007.277-.074.07-.11.074-.126.184-.023.15-.021.306-.057.454-.054.224-.143.44-.21.66a1.116 1.116 0 00-.065.374c.008.106.055.209.066.319a.623.623 0 01-.026.264c-.04.145-.003.245.02.392.038.242-.186.417-.19.659-.003.117.067.212.088.322.026.133-.11.204-.062.328.045.116.161.192.09.328-.062.12-.137.131-.106.277.03.139.017.18-.032.314-.02.055-.031.111-.064.16-.024.037-.102.08-.106.123-.012.123.134.095.008.226-.127.132-.053.138-.041.297.015.202-.291.135-.174.372.048.098.184.168.172.288-.015.14-.158.11-.22.202-.131.19.158.234.2.39.033.116.003.245-.032.356a2.1 2.1 0 00-.052.192c-.01.042-.014.09-.033.13-.018.039-.063.068-.076.109-.031.094.06.171.071.262.016.112-.013.225.02.338.027.096.09.108.194.137a12.131 12.131 0 001.028.235c1.034.194 2.085.28 3.134.348 1.873.12 3.75.181 5.627.154a84.598 84.598 0 005.224-.26c2.097-.16 4.19-.361 6.285-.552 2.415-.22 4.83-.426 7.25-.567a362.09 362.09 0 016.98-.318c2.084-.08 4.169-.137 6.255-.146 1.432-.006 2.863.014 4.295.046 1.29.03 2.58.062 3.872.069 1.647.009 3.294-.022 4.94-.08 1.168-.042 2.336-.092 3.504-.152.772-.04 1.544-.12 2.317-.15 1.042-.042 2.089-.015 3.13-.003a512.996 512.996 0 015.649.098c.225.004.472.04.697.014.115-.013.147-.066.156-.17.005-.056.001-.112.006-.167.003-.044.004-.087.027-.126.039-.063.115-.082.153-.15.053-.093.033-.213.036-.316.003-.138.029-.268.06-.401a.742.742 0 00.02-.323c-.024-.138-.086-.266-.078-.408a.419.419 0 01.098-.268c.077-.088.123-.14.118-.267-.004-.099-.046-.193-.047-.292 0-.111.038-.22.044-.332a.77.77 0 00-.062-.375c-.055-.111-.106-.179-.076-.31.027-.117.117-.2.171-.304a1.01 1.01 0 00.12-.361c.018-.214-.068-.387-.113-.588-.026-.119.012-.232.034-.348.024-.119.039-.24.084-.353.04-.1.09-.184.1-.293.012-.13-.008-.26 0-.39.007-.142.034-.279.063-.418.023-.112.025-.243.074-.347.042-.09.103-.17.121-.27.022-.12.004-.25.027-.373.03-.159.067-.308.072-.473.004-.16.028-.308.065-.464.053-.226.029-.462.084-.693a.753.753 0 00.02-.323c-.025-.138-.086-.266-.079-.408a.42.42 0 01.098-.269c.079-.089.123-.136.119-.266-.004-.1-.046-.193-.047-.292-.001-.12.04-.238.044-.358a.747.747 0 00-.063-.35c-.054-.11-.106-.178-.076-.31.027-.117.118-.198.172-.303.056-.109.108-.238.119-.361.018-.215-.07-.387-.112-.588-.041-.197.043-.514.118-.701.04-.1.09-.185.1-.293.011-.13-.008-.26-.001-.39a2.77 2.77 0 01.064-.418c.022-.106.023-.227.064-.327.038-.094.1-.169.125-.271.027-.111.014-.234.029-.349.02-.156.059-.304.071-.464a6.8 6.8 0 00.019-.422" fill="#FF4A80"/><path fill="#3D4550" d="M25.472 6.797H22.75v20.39h11.484v-2.552h-8.762zM42.232 25.221c-2.34 0-4.708-1.82-4.708-5.299 0-3.054 1.98-5.27 4.708-5.27 2.694 0 4.65 2.216 4.65 5.27 0 3.479-2.34 5.3-4.65 5.3m-.029-13.035c-4.21 0-7.266 3.253-7.266 7.735 0 2.121.696 4.063 1.958 5.467 1.333 1.483 3.168 2.267 5.308 2.267 4.21 0 7.266-3.252 7.266-7.734s-3.056-7.735-7.266-7.735M56.632 24.02L52.44 12.465l-.016-.042h-2.722l5.634 14.725.016.04h2.529l5.616-14.678.033-.087h-2.693zM70.22 14.651c1.718 0 3.553 1.059 3.579 4.025h-7.67c.206-2.765 2.258-4.025 4.091-4.025zm6.202 4.723c0-4.964-3.071-7.186-6.116-7.186-1.77 0-3.425.693-4.66 1.95-1.383 1.412-2.115 3.412-2.115 5.784 0 5.314 3.557 7.734 6.861 7.734 2.39 0 4.63-1.25 5.99-3.345l.035-.052-1.973-1.373-.034.061c-.823 1.467-2.239 2.274-3.989 2.274-2.43 0-4.109-1.645-4.292-4.197h10.293v-1.65zM72.882 56.545c.413-.327.831-.653 1.25-.978 3.856-2.998 7.843-6.099 7.843-10.631 0-3.55-2.538-6.03-6.17-6.03-3.192 0-6.627 2.157-6.627 6.892 0 .229.015.482.038.64l2.602-1.014c0-2.604 1.92-3.966 3.815-3.966 1.843 0 3.701 1.182 3.701 3.823 0 3.42-3.457 6.098-8.243 9.804-.683.528-1.393 1.078-2.126 1.656l-.043.033v2.523h13.594v-2.752h-9.634zM7.591 47.667l-.236-.095c-2.153-.873-3.678-1.64-3.678-3.58 0-1.911 1.513-2.911 3.007-2.911 1.205 0 2.732.644 3.328 2.055l2.535-.992-.038-.095c-.998-2.495-3.63-3.611-5.797-3.611-2.836 0-5.89 1.8-5.89 5.755 0 3.861 2.94 5.064 5.3 6.03l.29.12c2.412 1.001 3.993 1.806 3.993 3.782 0 2.05-1.71 2.969-3.406 2.969-1.677 0-3.678-.9-4.269-3.426l-.026-.112-2.688 1.027c.81 3.156 3.483 5.183 6.868 5.183 1.702 0 3.286-.523 4.461-1.472 1.328-1.072 2.03-2.603 2.03-4.428 0-3.878-3.073-5.111-5.784-6.199M40.709 51.797c0 3.426-2.3 5.218-4.571 5.218-2.3 0-4.628-1.792-4.628-5.218 0-3.007 1.946-5.19 4.628-5.19 2.648 0 4.57 2.183 4.57 5.19m-4.599-7.734c-4.21 0-7.265 3.252-7.265 7.734s3.055 7.734 7.265 7.734c4.21 0 7.266-3.252 7.266-7.734s-3.056-7.734-7.266-7.734M54.383 52.854c0 2.744-1.982 4.225-3.846 4.225-1.42 0-2.936-.86-2.936-3.27v-9.512h-2.585v9.511c0 4.224 2.698 5.723 5.008 5.723 1.859 0 3.496-.903 4.346-2.376l.493 2.03h2.106V44.296h-2.586v8.557zM63.72 40.078l-2.625 1.011v3.228h-2.486v2.392h2.486v8.146c0 4.069 2.316 4.676 3.697 4.676a7.01 7.01 0 001.939-.293l.082-.023v-2.603l-.174.112c-.405.26-.88.416-1.269.416-1.049 0-1.65-.76-1.65-2.082v-8.35h3.093v-2.39H63.72v-4.24zM94.54 51.63v-6.024l-2.665 1.034v4.99h-5.98l7.293-12.49h-2.96l-7.712 13.178v2.018h9.359v4.96h2.664v-4.96h3.445V51.63zM25.798 54.711c-.753 1.41-2.16 2.275-3.741 2.275-2.193 0-4.405-1.613-4.405-5.218 0-2.485 1.325-5.16 4.234-5.16 1.45 0 2.74.782 3.424 2.059l2.458-.95-.044-.094c-1.02-2.196-3.258-3.56-5.838-3.56-1.816 0-3.498.681-4.736 1.92-1.396 1.397-2.134 3.407-2.134 5.814 0 5.314 3.59 7.734 6.927 7.734 2.594 0 4.892-1.425 6.148-3.813l.05-.094-.021-.01-2.322-.903z"/></g></svg>