<svg xmlns="http://www.w3.org/2000/svg" xmlns:xlink="http://www.w3.org/1999/xlink" viewBox="0 0 290 57" width="290"  height="57" ><defs><path id="a" d="M0 .267h121.158v56.246H0z"/><path id="c" d="M.083.227h25.818v33.116H.083z"/></defs><g fill="none" fill-rule="evenodd"><g><mask id="b" fill="#fff"><use xlink:href="#a"/></mask><path d="M121.155 24.765c.048-.383-.38-.283-.632-.286-.526-.006-1.05.003-1.576.013-.938.018-1.88.03-2.817.083.028-.457.077-.912.106-1.368.02-.3-.006-.598.006-.897.012-.27.088-.54.137-.805.031-.173.096-.333.14-.502.077-.294.02-.568.009-.863-.012-.289.075-.46.148-.73.092-.342.096-.703.109-1.055.015-.404.03-.81.097-1.208.056-.327.2-.559.31-.856.104-.282.104-.698.103-.997-.001-.228-.092-.235-.184-.406-.049-.09-.03-.322-.024-.426.02-.355.129-.749.3-1.06.163-.295.279-.615.248-.961-.014-.17-.089-.324-.089-.496 0-.177.067-.339.114-.506.114-.402.09-.844.081-1.258-.015-.684-.294-1.478.073-2.112.311-.537.266-1.116.325-1.72.02-.19.054-.341-.046-.485-.086-.125-.101-.165-.069-.348.07-.394.212-.765.214-1.171.002-.306-.18-.52-.178-.819.005-.765.315-1.515.426-2.267.049-.333.009-.877-.412-.975-.171-.04-.396.001-.57.006-2.247.06-4.492.173-6.738.26-2.993.115-5.985.19-8.98.233a485.35 485.35 0 01-9.187.044C90.006.815 87.413.785 84.82.772a456.766 456.766 0 00-8.867.039c-3.758.053-7.515.151-11.27.291-3.085.115-6.17.26-9.252.424-3.1.165-6.2.34-9.298.545-2.902.192-5.801.413-8.701.629-3.224.24-6.449.462-9.676.654-3.646.217-7.294.408-10.943.566a551.63 551.63 0 01-9.747.339c-.683.017-1.274.056-1.851.473-.594.428-1.02 1.037-1.352 1.683a9.332 9.332 0 00-.292.625c-.093.22-.137.436-.209.658-.044.137-.075.145.018.288.052.08.132.145.128.244-.008.174-.171.353-.19.546-.017.188.028.319-.147.421-.194.114-.2.182-.197.406.003.194-.066.346-.104.53-.045.212.06.348.13.54.054.153.05.324-.077.441-.107.099-.225.094-.226.276 0 .109.077.204.092.31.013.096-.021.182-.035.277-.025.175-.01.352.094.501.088.125.22.19.168.367-.05.165-.256.266-.346.415-.227.375-.005.583.112.926.107.313-.155.654-.275.918-.081.18-.009.386-.016.575-.008.198-.071.38-.116.57-.04.166-.064.218-.181.33-.14.136-.191.292-.255.472a1.524 1.524 0 00-.103.474c-.005.178.055.342.03.52-.016.124-.04.208-.017.33.047.238.05.43.027.674-.04.44-.133.874-.133 1.317 0 .16-.003.247-.072.389-.074.151-.079.25-.104.414-.043.272-.31.373-.286.675.017.218.095.413.087.634-.01.25-.067.474-.122.715-.035.153.001.262.03.407.045.215.029.44-.06.641-.063.145-.17.265-.21.42-.042.173-.003.355-.03.53-.068.418-.031.84-.077 1.264-.024.229-.07.472-.062.703.008.21.066.42.09.628.025.223-.013.434-.04.657-.06.5-.131 1-.203 1.499-.021.15-.03.295-.036.446-.008.182-.014.364-.018.546-.003.11-.054.37.023.47.055.072.07.053.17.057.237.012.476.015.713.022.78.024 1.558.05 2.336.08-.034.186-.063.373-.102.557-.077.365-.373.764-.281 1.135.047.188.082.262-.047.424-.105.13-.228.228-.305.382-.06.12-.193.44.017.487.083.019.136-.064.22-.02.098.05.101.175.086.268-.07.42-.553.579-.63.968-.073.364.2.673.13 1.043a1.23 1.23 0 00-.006.543c.042.193.144.472-.05.614-.067.05-.165.05-.237.095-.099.06-.15.15-.21.242-.041.063-.037.093-.093.132-.052.036-.146.019-.193.06-.116.102-.02.307-.021.448-.004.202-.066.29.047.48.086.143.122.206-.032.314-.2.141-.256.166-.343.42-.077.226-.128.343-.027.564.082.178.14.316-.012.461-.123.118-.183.124-.21.307-.038.25-.035.51-.095.756-.09.373-.238.732-.35 1.1-.056.19-.123.424-.108.623.012.177.092.349.11.532.017.173.002.275-.044.44-.068.242-.004.41.034.654.063.403-.311.694-.318 1.097-.004.195.113.354.148.537.043.221-.185.341-.103.548.075.192.268.318.15.546-.104.2-.23.218-.177.461.05.23.028.299-.054.523-.034.092-.052.186-.106.269-.04.06-.17.13-.177.202-.02.206.224.16.013.378-.211.219-.089.23-.069.495.025.337-.486.224-.29.62.08.163.306.28.286.479-.023.235-.262.184-.367.337-.218.317.265.39.336.65.053.194.005.408-.054.594a3.42 3.42 0 00-.087.319c-.016.07-.024.15-.055.216-.03.066-.105.114-.127.182-.052.157.098.287.12.438.025.186-.023.374.03.562.046.16.152.181.325.229a21.87 21.87 0 001.714.392c1.724.322 3.478.466 5.226.58 3.124.2 6.254.302 9.384.256 2.908-.043 5.812-.21 8.711-.433 3.497-.268 6.988-.602 10.48-.92 4.027-.368 8.055-.71 12.091-.945 3.877-.224 7.758-.38 11.638-.53 3.476-.134 6.953-.228 10.431-.243 2.388-.01 4.775.024 7.163.077 2.152.048 4.304.103 6.456.114 2.747.015 5.493-.037 8.237-.133 1.949-.069 3.897-.153 5.844-.254 1.288-.066 2.576-.199 3.864-.25 1.737-.069 3.483-.023 5.22-.004a891.7 891.7 0 016.877.111l2.542.051c.376.008.788.067 1.163.024.191-.021.246-.11.26-.284.008-.092.002-.185.01-.278.005-.073.007-.145.046-.209.064-.106.19-.137.254-.249.088-.156.056-.357.06-.529.006-.229.048-.445.1-.667.046-.189.068-.343.034-.539-.04-.23-.143-.442-.13-.679a.7.7 0 01.163-.448c.128-.146.205-.23.197-.444-.007-.165-.077-.321-.078-.487-.002-.185.063-.367.073-.553a1.28 1.28 0 00-.104-.625c-.09-.185-.177-.298-.126-.517.045-.195.195-.332.285-.506.095-.18.181-.397.199-.602.03-.357-.112-.645-.187-.98-.044-.197.019-.386.057-.58.039-.198.064-.4.14-.588.066-.165.15-.307.167-.488.019-.215-.014-.434-.002-.65.013-.238.058-.465.106-.697.039-.186.041-.405.123-.578.07-.149.173-.282.203-.451.036-.2.006-.417.045-.62.05-.265.11-.514.119-.79.008-.265.047-.511.108-.772.089-.377.05-.77.14-1.156.045-.185.067-.346.034-.538-.041-.23-.143-.443-.13-.679a.699.699 0 01.163-.448c.13-.149.205-.228.197-.444-.007-.165-.077-.322-.078-.487-.002-.2.068-.396.073-.597a1.24 1.24 0 00-.104-.581c-.09-.185-.177-.298-.127-.517.045-.195.196-.332.286-.506.094-.181.181-.397.199-.602.03-.359-.116-.644-.187-.98-.069-.328.071-.857.196-1.168.067-.166.151-.307.167-.488.02-.216-.013-.434-.001-.65.013-.238.058-.465.106-.697.036-.176.039-.379.107-.545.065-.156.168-.281.209-.452.044-.184.023-.39.048-.58.034-.262.098-.508.119-.774.018-.233.027-.468.03-.703" fill="#FF4A80" mask="url(#b)"/></g><path fill="#333" d="M20.198 11.154h-4.583v34.205H34.95v-4.282H20.198zM48.38 42.006c-3.83 0-7.708-3.063-7.708-8.916 0-5.138 3.242-8.868 7.709-8.868 4.412 0 7.614 3.73 7.614 8.868 0 5.853-3.83 8.916-7.614 8.916m-.048-21.93c-6.893 0-11.897 5.474-11.897 13.014 0 3.569 1.139 6.836 3.206 9.199 2.182 2.495 5.188 3.814 8.691 3.814 6.894 0 11.898-5.473 11.898-13.013s-5.004-13.013-11.898-13.013M72.524 40.096L65.538 20.89l-.026-.07h-4.538l9.392 24.471.026.068h4.216l9.362-24.394.056-.144h-4.49zM95.215 24.222c2.874 0 5.944 1.781 5.987 6.771h-12.83c.344-4.65 3.776-6.77 6.843-6.77zm10.375 7.946c0-8.352-5.138-12.091-10.23-12.091a10.8 10.8 0 00-7.795 3.283c-2.316 2.374-3.54 5.74-3.54 9.73 0 8.94 5.95 13.013 11.478 13.013 3.998 0 7.745-2.104 10.021-5.628l.057-.088-3.3-2.31-.057.103c-1.376 2.467-3.746 3.826-6.673 3.826-4.065 0-6.873-2.768-7.18-7.062h17.219v-2.776zM247.638 40.742c.7-.549 1.41-1.094 2.12-1.64 6.538-5.03 13.3-10.23 13.3-17.833 0-5.956-4.303-10.115-10.464-10.115-5.412 0-11.237 3.617-11.237 11.56 0 .384.026.81.065 1.075l4.413-1.7c0-4.37 3.254-6.655 6.469-6.655 3.124 0 6.276 1.983 6.276 6.413 0 5.738-5.863 10.23-13.98 16.446-1.157.886-2.361 1.81-3.604 2.778l-.073.056v4.232h23.051v-4.617h-16.336zM139.06 25.856l-.395-.159c-3.595-1.46-6.14-2.746-6.14-5.992 0-3.198 2.525-4.871 5.02-4.871 2.012 0 4.563 1.078 5.557 3.438l4.233-1.658-.064-.16c-1.665-4.175-6.06-6.044-9.678-6.044-4.737 0-9.836 3.014-9.836 9.632 0 6.462 4.908 8.475 8.851 10.093l.483.198c4.028 1.676 6.668 3.022 6.668 6.33 0 3.432-2.857 4.968-5.689 4.968-2.798 0-6.14-1.506-7.126-5.733l-.044-.187-4.49 1.718c1.353 5.281 5.818 8.674 11.47 8.674 2.84 0 5.486-.875 7.448-2.463 2.218-1.795 3.39-4.357 3.39-7.41 0-6.49-5.13-8.554-9.658-10.374M194.172 33.09c0 5.763-3.765 8.779-7.484 8.779-3.766 0-7.578-3.016-7.578-8.78 0-5.059 3.187-8.73 7.578-8.73 4.337 0 7.484 3.671 7.484 8.73m-7.53-13.012c-6.895 0-11.898 5.473-11.898 13.012 0 7.54 5.003 13.014 11.897 13.014s11.897-5.473 11.897-13.014c0-7.54-5.003-13.012-11.897-13.012M217.246 35.021c0 4.554-3.328 7.011-6.46 7.011-2.383 0-4.93-1.426-4.93-5.427V20.82h-4.343v15.784c0 7.01 4.532 9.498 8.412 9.498 3.122 0 5.872-1.5 7.3-3.944l.827 3.367h3.538V20.821h-4.344v14.2zM232.903 13.385l-4.283 1.661v5.306h-4.056v3.931h4.056v13.39c0 6.688 3.779 7.686 6.032 7.686 1.001 0 2.036-.158 3.163-.482l.134-.039v-4.276l-.284.184c-.66.427-1.435.682-2.07.682-1.71 0-2.692-1.247-2.692-3.422V24.283h5.046v-3.93h-5.046v-6.968z"/><g transform="translate(263.974 11.897)"><mask id="d" fill="#fff"><use xlink:href="#c"/></mask><path fill="#333" mask="url(#d)" d="M20.15 20.747V10.85l-4.446 1.698v8.199h-9.98L17.894.227h-4.937L.083 21.877v3.315h15.62v8.151h4.448v-8.15h5.75v-4.446z"/></g><path d="M169.275 37.993c-1.28 2.372-3.671 3.827-6.359 3.827-3.727 0-7.487-2.714-7.487-8.779 0-4.181 2.252-8.682 7.198-8.682a6.554 6.554 0 015.818 3.465l4.179-1.597-.075-.16c-1.736-3.695-5.538-5.99-9.922-5.99-3.088 0-5.947 1.147-8.05 3.23-2.374 2.35-3.628 5.733-3.628 9.782 0 8.941 6.103 13.014 11.774 13.014 4.408 0 8.314-2.399 10.45-6.417l.083-.158-.035-.016-3.946-1.52z" fill="#333"/></g></svg>