<svg xmlns="http://www.w3.org/2000/svg" fill="none" viewBox="0 0 293 157"><path stroke="#D4D4D4" stroke-dasharray="0 8" stroke-linecap="round" stroke-linejoin="round" stroke-width="3" d="M1 26.663C79.53.287 93.107 105.997 163.222 99.731 233.338 93.466 220.369 5.277 293 1"/><path fill="#1F2F49" d="m29.032 67.5-.008-4.08L27 66.82h-.368l-2.024-3.376V67.5h-.768v-5.6h.656l2.336 3.936 2.304-3.936h.656l.008 5.6h-.768Zm4.153.048c-.422 0-.8-.093-1.136-.28a2.068 2.068 0 0 1-.792-.768 2.239 2.239 0 0 1-.28-1.12c0-.416.093-.787.28-1.112.192-.33.456-.587.792-.768.336-.187.714-.28 1.136-.28.421 0 .797.093 1.128.28.336.181.597.437.784.768.192.325.288.696.288 1.112 0 .416-.096.79-.288 1.12a2.01 2.01 0 0 1-.784.768c-.331.187-.707.28-1.128.28Zm0-.672a1.353 1.353 0 0 0 1.24-.712c.122-.23.184-.49.184-.784a1.59 1.59 0 0 0-.184-.776 1.286 1.286 0 0 0-.512-.528 1.434 1.434 0 0 0-.728-.184c-.272 0-.518.061-.736.184a1.356 1.356 0 0 0-.512.528 1.59 1.59 0 0 0-.184.776c0 .293.061.555.184.784.128.224.298.4.512.528.218.123.464.184.736.184Zm7.262-5.312V67.5h-.736v-.672c-.17.235-.387.413-.648.536-.262.123-.55.184-.864.184-.41 0-.779-.09-1.104-.272a1.983 1.983 0 0 1-.768-.76 2.323 2.323 0 0 1-.272-1.136c0-.427.09-.803.272-1.128.186-.325.442-.579.768-.76a2.229 2.229 0 0 1 1.104-.272c.304 0 .584.059.84.176.256.112.47.28.64.504v-2.336h.768Zm-2.184 5.312c.266 0 .51-.061.728-.184.218-.128.39-.304.512-.528.122-.23.184-.49.184-.784a1.59 1.59 0 0 0-.184-.776 1.287 1.287 0 0 0-.512-.528 1.462 1.462 0 0 0-.728-.184c-.272 0-.518.061-.736.184a1.356 1.356 0 0 0-.512.528 1.59 1.59 0 0 0-.184.776c0 .293.061.555.184.784.128.224.298.4.512.528.218.123.464.184.736.184Zm7.469-1.472c0 .059-.005.136-.016.232h-3.44c.048.373.21.675.488.904.282.224.632.336 1.048.336.507 0 .915-.17 1.224-.512l.424.496a1.851 1.851 0 0 1-.72.512c-.283.117-.6.176-.952.176-.448 0-.845-.09-1.192-.272a2.022 2.022 0 0 1-.808-.776 2.238 2.238 0 0 1-.28-1.12c0-.41.09-.781.272-1.112.187-.33.44-.587.76-.768.325-.187.69-.28 1.096-.28.405 0 .765.093 1.08.28.32.181.568.437.744.768.181.33.272.71.272 1.136Zm-2.096-1.536c-.368 0-.678.112-.928.336-.245.224-.39.517-.432.88h2.72a1.34 1.34 0 0 0-.44-.872c-.245-.23-.552-.344-.92-.344Zm3.898.104a1.31 1.31 0 0 1 .592-.56c.262-.128.579-.192.952-.192v.744a1.507 1.507 0 0 0-.176-.008c-.416 0-.744.125-.984.376-.234.245-.352.597-.352 1.056V67.5h-.768v-4.24h.736v.712Zm2.49-.712h.769v4.24h-.768v-4.24Zm.385-.816a.526.526 0 0 1-.376-.144.479.479 0 0 1-.144-.352c0-.139.048-.256.144-.352a.51.51 0 0 1 .376-.152c.15 0 .272.048.368.144.101.09.152.205.152.344 0 .144-.05.267-.152.368a.498.498 0 0 1-.368.144Zm5.682 2.96c0 .059-.005.136-.016.232h-3.44c.048.373.21.675.488.904.283.224.632.336 1.048.336.507 0 .915-.17 1.224-.512l.424.496a1.851 1.851 0 0 1-.72.512c-.282.117-.6.176-.952.176-.448 0-.845-.09-1.192-.272a2.022 2.022 0 0 1-.808-.776 2.238 2.238 0 0 1-.28-1.12c0-.41.09-.781.272-1.112.187-.33.44-.587.76-.768.326-.187.69-.28 1.096-.28.406 0 .766.093 1.08.28.32.181.568.437.744.768.182.33.272.71.272 1.136Zm-2.096-1.536c-.368 0-.677.112-.928.336-.245.224-.39.517-.432.88h2.72a1.34 1.34 0 0 0-.44-.872c-.245-.23-.552-.344-.92-.344Zm3.899.104a1.31 1.31 0 0 1 .592-.56c.261-.128.578-.192.952-.192v.744a1.507 1.507 0 0 0-.176-.008c-.416 0-.744.125-.984.376-.235.245-.352.597-.352 1.056V67.5h-.768v-4.24h.736v.712Zm5.046 3.28c-.112.096-.25.17-.416.224a1.827 1.827 0 0 1-.512.072c-.426 0-.757-.115-.992-.344-.235-.23-.352-.557-.352-.984v-2.328h-.72v-.632h.72v-.928h.768v.928h1.216v.632h-1.216v2.296c0 .23.056.405.168.528.117.123.283.184.496.184a.926.926 0 0 0 .6-.2l.24.552Zm4.62-1.848c0 .059-.005.136-.016.232h-3.44c.048.373.21.675.488.904.283.224.632.336 1.048.336.507 0 .915-.17 1.224-.512l.424.496a1.851 1.851 0 0 1-.72.512c-.283.117-.6.176-.952.176-.448 0-.845-.09-1.192-.272a2.022 2.022 0 0 1-.808-.776 2.238 2.238 0 0 1-.28-1.12c0-.41.09-.781.272-1.112.187-.33.44-.587.76-.768.325-.187.69-.28 1.096-.28.405 0 .765.093 1.08.28.32.181.568.437.744.768.181.33.272.71.272 1.136Zm-2.096-1.536c-.368 0-.677.112-.928.336-.245.224-.39.517-.432.88h2.72a1.34 1.34 0 0 0-.44-.872c-.245-.23-.552-.344-.92-.344ZM26.024 72.9c.725 0 1.296.173 1.712.52.416.347.624.824.624 1.432s-.208 1.085-.624 1.432c-.416.347-.987.52-1.712.52H24.64V78.5h-.8v-5.6h2.184ZM26 76.108c.507 0 .893-.107 1.16-.32.267-.219.4-.53.4-.936 0-.405-.133-.715-.4-.928-.267-.219-.653-.328-1.16-.328h-1.36v2.512H26Zm4.089-1.136a1.31 1.31 0 0 1 .592-.56c.261-.128.579-.192.952-.192v.744a1.507 1.507 0 0 0-.176-.008c-.416 0-.744.125-.984.376-.235.245-.352.597-.352 1.056V78.5h-.768v-4.24h.736v.712Zm4.267 3.576c-.42 0-.8-.093-1.136-.28a2.068 2.068 0 0 1-.791-.768 2.238 2.238 0 0 1-.28-1.12c0-.416.093-.787.28-1.112.191-.33.456-.587.791-.768.337-.187.715-.28 1.136-.28.422 0 .798.093 1.128.28.337.181.598.437.785.768.192.325.288.696.288 1.112 0 .416-.096.79-.288 1.12a2.011 2.011 0 0 1-.785.768c-.33.187-.706.28-1.128.28Zm0-.672a1.354 1.354 0 0 0 1.24-.712c.123-.23.184-.49.184-.784a1.59 1.59 0 0 0-.184-.776 1.286 1.286 0 0 0-.511-.528 1.434 1.434 0 0 0-.729-.184c-.272 0-.517.061-.736.184a1.356 1.356 0 0 0-.511.528 1.59 1.59 0 0 0-.184.776c0 .293.06.555.184.784.127.224.298.4.511.528.22.123.465.184.736.184Zm4.815-4.728c-.459 0-.688.248-.688.744v.368h1.232v.632h-1.216V78.5h-.768v-3.608h-.72v-.632h.72v-.376c0-.421.122-.755.368-1 .245-.245.589-.368 1.032-.368.17 0 .33.021.48.064.149.043.277.104.384.184l-.232.584a.956.956 0 0 0-.592-.2Zm1.912 1.112h.768v4.24h-.768v-4.24Zm.384-.816a.526.526 0 0 1-.376-.144.479.479 0 0 1-.144-.352c0-.139.048-.256.144-.352a.511.511 0 0 1 .376-.152c.149 0 .272.048.368.144.101.09.152.205.152.344a.5.5 0 0 1-.152.368.498.498 0 0 1-.368.144Zm1.847-.88h.768V78.5h-.768v-5.936Zm6.066 3.84c0 .059-.005.136-.016.232h-3.44c.048.373.211.675.488.904.283.224.632.336 1.048.336.507 0 .915-.17 1.224-.512l.424.496a1.851 1.851 0 0 1-.72.512c-.282.117-.6.176-.952.176-.448 0-.845-.09-1.192-.272a2.022 2.022 0 0 1-.808-.776 2.238 2.238 0 0 1-.28-1.12c0-.41.091-.781.272-1.112.187-.33.44-.587.76-.768.326-.187.691-.28 1.096-.28.406 0 .766.093 1.08.28.32.181.568.437.744.768.182.33.272.71.272 1.136Zm-2.096-1.536c-.368 0-.677.112-.928.336-.245.224-.389.517-.432.88h2.72a1.34 1.34 0 0 0-.44-.872c-.245-.23-.552-.344-.92-.344Zm4.374-.816.953.536-.248.44-.968-.568.008 1.088h-.48l.008-1.088-.968.568-.248-.44.96-.536-.96-.528.247-.448.968.568-.008-1.08h.48l-.008 1.08.968-.568.248.448-.952.528Zm3.36 0 .952.536-.248.44-.968-.568.008 1.088h-.48l.008-1.088-.968.568-.248-.44.96-.536-.96-.528.248-.448.968.568-.008-1.08h.48l-.008 1.08.968-.568.248.448-.952.528Z"/><circle cx="53" cy="26.5" r="25.5" fill="#ED147D"/><path fill="#fff" fill-rule="evenodd" d="M58.795 20.125v1.651a5.797 5.797 0 0 1 3.478 5.304c0 3.764-2.607 5.624-5.129 7.424l-.001.001-.008.005c-1.123.802-2.284 1.63-3.316 2.662a1.156 1.156 0 0 1-1.639 0c-1.03-1.031-2.191-1.86-3.314-2.662l-.008-.005-.003-.002c-2.521-1.8-5.128-3.66-5.128-7.423a5.8 5.8 0 0 1 3.478-5.304v-1.65A5.803 5.803 0 0 1 53 14.33c3.196 0 5.795 2.6 5.795 5.795Zm-9.272 0A3.48 3.48 0 0 1 53 16.648a3.48 3.48 0 0 1 3.477 3.477v1.16c-1.258 0-2.477.42-3.477 1.18a5.75 5.75 0 0 0-3.477-1.18v-1.16Zm6.258 12.503.015-.01c2.656-1.895 4.159-3.086 4.159-5.538a3.48 3.48 0 0 0-3.478-3.477c-1 0-1.926.426-2.604 1.203-.44.503-1.305.503-1.746 0-.678-.777-1.603-1.203-2.604-1.203a3.48 3.48 0 0 0-3.478 3.477c0 2.452 1.504 3.643 4.16 5.538l.044.031c.871.624 1.83 1.31 2.751 2.118.931-.817 1.9-1.51 2.782-2.139Zm-3.94-4.39a1.16 1.16 0 0 1 2.319 0v1.16a1.16 1.16 0 0 1-2.319 0v-1.16Z" clip-rule="evenodd"/><path fill="#1F2F49" d="M198.472 83.564c-.421 0-.829-.064-1.224-.192-.389-.133-.696-.304-.92-.512l.296-.624c.213.192.485.35.816.472.336.117.68.176 1.032.176.464 0 .811-.077 1.04-.232.229-.16.344-.37.344-.632a.6.6 0 0 0-.192-.464 1.19 1.19 0 0 0-.464-.28 8.106 8.106 0 0 0-.776-.216 8.264 8.264 0 0 1-1.024-.304 1.746 1.746 0 0 1-.664-.464c-.181-.213-.272-.499-.272-.856 0-.299.077-.568.232-.808.16-.24.4-.432.72-.576.32-.144.717-.216 1.192-.216.331 0 .656.043.976.128.32.085.595.208.824.368l-.264.64a2.801 2.801 0 0 0-.752-.336 2.722 2.722 0 0 0-.784-.12c-.453 0-.795.083-1.024.248a.762.762 0 0 0-.336.64c0 .192.064.35.192.472.128.117.285.21.472.28.192.064.451.133.776.208.421.101.76.203 1.016.304.256.101.475.256.656.464.187.208.28.488.28.84 0 .293-.08.563-.24.808-.16.24-.403.432-.728.576-.325.139-.725.208-1.2.208Zm3.225-4.304h.768v4.24h-.768v-4.24Zm.384-.816a.524.524 0 0 1-.376-.144.479.479 0 0 1-.144-.352.51.51 0 0 1 .52-.504c.149 0 .272.048.368.144.101.09.152.205.152.344a.502.502 0 0 1-.52.512Zm3.698 5.104c-.432 0-.819-.093-1.16-.28a2.068 2.068 0 0 1-.792-.768 2.19 2.19 0 0 1-.288-1.12c0-.416.096-.787.288-1.112.192-.33.456-.587.792-.768.341-.187.728-.28 1.16-.28.384 0 .725.077 1.024.232.304.155.539.379.704.672l-.584.376a1.304 1.304 0 0 0-.496-.456 1.414 1.414 0 0 0-.656-.152 1.54 1.54 0 0 0-.752.184 1.337 1.337 0 0 0-.52.528 1.586 1.586 0 0 0-.184.776c0 .299.061.563.184.792.128.224.301.397.52.52.224.123.475.184.752.184.24 0 .459-.05.656-.152.197-.101.363-.253.496-.456l.584.368c-.165.293-.4.52-.704.68-.299.155-.64.232-1.024.232Zm4.932-4.328c.538 0 .965.157 1.28.472.32.31.48.765.48 1.368v2.44h-.768v-2.352c0-.41-.099-.72-.296-.928-.198-.208-.48-.312-.848-.312-.416 0-.744.123-.984.368-.24.24-.36.587-.36 1.04V83.5h-.768v-5.936h.768v2.296c.16-.203.368-.36.624-.472a2.19 2.19 0 0 1 .872-.168Zm7.037 2.184c0 .059-.006.136-.016.232h-3.44c.048.373.21.675.488.904.282.224.632.336 1.048.336.506 0 .914-.17 1.224-.512l.424.496a1.851 1.851 0 0 1-.72.512c-.283.117-.6.176-.952.176-.448 0-.846-.09-1.192-.272a2.02 2.02 0 0 1-.808-.776 2.235 2.235 0 0 1-.28-1.12c0-.41.09-.781.272-1.112.186-.33.44-.587.76-.768a2.16 2.16 0 0 1 1.096-.28c.405 0 .765.093 1.08.28.32.181.568.437.744.768.181.33.272.71.272 1.136Zm-2.096-1.536a1.34 1.34 0 0 0-.928.336c-.246.224-.39.517-.432.88h2.72a1.344 1.344 0 0 0-.44-.872 1.296 1.296 0 0 0-.92-.344Zm3.898.104a1.31 1.31 0 0 1 .592-.56c.261-.128.579-.192.952-.192v.744a1.507 1.507 0 0 0-.176-.008c-.416 0-.744.125-.984.376-.235.245-.352.597-.352 1.056V83.5h-.768v-4.24h.736v.712Zm6.283 1.432c0 .059-.005.136-.016.232h-3.44c.048.373.211.675.488.904.283.224.632.336 1.048.336.507 0 .915-.17 1.224-.512l.424.496a1.851 1.851 0 0 1-.72.512 2.46 2.46 0 0 1-.952.176c-.448 0-.845-.09-1.192-.272a2.026 2.026 0 0 1-.808-.776 2.245 2.245 0 0 1-.28-1.12c0-.41.091-.781.272-1.112.187-.33.44-.587.76-.768.326-.187.691-.28 1.096-.28.406 0 .766.093 1.08.28.32.181.568.437.744.768.182.33.272.71.272 1.136Zm-2.096-1.536c-.368 0-.677.112-.928.336a1.366 1.366 0 0 0-.432.88h2.72a1.335 1.335 0 0 0-.44-.872c-.245-.23-.552-.344-.92-.344Zm9.607 2.936v.696h-4.68v-.544l3.52-4.36h-3.464V77.9h4.52v.544l-3.504 4.36h3.608Zm2.522-3.584c.586 0 1.034.144 1.344.432.314.288.472.717.472 1.288v2.56h-.728v-.56c-.128.197-.312.35-.552.456a2.113 2.113 0 0 1-.84.152c-.475 0-.856-.115-1.144-.344a1.107 1.107 0 0 1-.424-.904c0-.373.136-.672.408-.896.272-.23.704-.344 1.296-.344h1.216v-.152c0-.33-.096-.584-.288-.76-.192-.176-.475-.264-.848-.264-.251 0-.496.043-.736.128-.24.08-.443.19-.608.328l-.32-.576c.218-.176.48-.31.784-.4.304-.096.626-.144.968-.144Zm-.176 3.736c.293 0 .546-.064.76-.192.213-.133.368-.32.464-.56v-.592h-1.184c-.651 0-.976.219-.976.656 0 .213.082.381.248.504.165.123.394.184.688.184Zm5.677-3.736c.539 0 .965.157 1.28.472.32.31.48.765.48 1.368v2.44h-.768v-2.352c0-.41-.099-.72-.296-.928-.197-.208-.48-.312-.848-.312-.416 0-.744.123-.984.368-.24.24-.36.587-.36 1.04V83.5h-.768v-5.936h.768v2.296c.16-.203.368-.36.624-.472a2.19 2.19 0 0 1 .872-.168Zm3.181-1.656h.768V83.5h-.768v-5.936Zm6.187 1.696v4.24h-.728v-.64c-.155.219-.36.39-.616.512a1.923 1.923 0 0 1-.824.176c-.566 0-1.011-.155-1.336-.464-.326-.315-.488-.776-.488-1.384v-2.44h.768v2.352c0 .41.098.723.296.936.197.208.48.312.848.312.405 0 .725-.123.96-.368.234-.245.352-.592.352-1.04V79.26h.768Zm3.726-.04c.538 0 .965.157 1.28.472.32.31.48.765.48 1.368v2.44h-.768v-2.352c0-.41-.099-.72-.296-.928-.198-.208-.48-.312-.848-.312-.416 0-.744.123-.984.368-.24.24-.36.587-.36 1.04V83.5h-.768v-4.24h.736v.64c.154-.219.362-.387.624-.504.266-.117.568-.176.904-.176Zm7.261.04v3.664c0 .741-.184 1.288-.552 1.64-.368.357-.918.536-1.648.536-.4 0-.782-.056-1.144-.168-.363-.107-.656-.261-.88-.464l.368-.592c.197.17.44.304.728.4.293.101.594.152.904.152.496 0 .861-.117 1.096-.352.24-.235.36-.592.36-1.072v-.336a1.739 1.739 0 0 1-.672.496c-.262.107-.547.16-.856.16-.406 0-.774-.085-1.104-.256a1.97 1.97 0 0 1-.768-.728 2.058 2.058 0 0 1-.28-1.072c0-.4.093-.755.28-1.064.186-.315.442-.557.768-.728.33-.17.698-.256 1.104-.256.32 0 .616.059.888.176.277.117.504.29.68.52v-.656h.728Zm-2.208 3.392c.277 0 .525-.059.744-.176.224-.117.397-.28.52-.488.128-.213.192-.453.192-.72 0-.41-.136-.741-.408-.992-.272-.256-.622-.384-1.048-.384-.432 0-.784.128-1.056.384-.272.25-.408.581-.408.992 0 .267.061.507.184.72.128.208.301.37.52.488.224.117.477.176.76.176Zm7.507-1.248c0 .059-.005.136-.016.232h-3.44c.048.373.211.675.488.904.283.224.632.336 1.048.336.507 0 .915-.17 1.224-.512l.424.496a1.851 1.851 0 0 1-.72.512c-.283.117-.6.176-.952.176-.448 0-.845-.09-1.192-.272a2.02 2.02 0 0 1-.808-.776 2.235 2.235 0 0 1-.28-1.12c0-.41.091-.781.272-1.112.187-.33.44-.587.76-.768.325-.187.691-.28 1.096-.28.405 0 .765.093 1.08.28.32.181.568.437.744.768.181.33.272.71.272 1.136Zm-2.096-1.536c-.368 0-.677.112-.928.336a1.366 1.366 0 0 0-.432.88h2.72a1.34 1.34 0 0 0-.44-.872c-.245-.23-.552-.344-.92-.344Zm5.426-.648c.539 0 .966.157 1.28.472.32.31.48.765.48 1.368v2.44h-.768v-2.352c0-.41-.098-.72-.296-.928-.197-.208-.48-.312-.848-.312-.416 0-.744.123-.984.368-.24.24-.36.587-.36 1.04V83.5h-.768v-4.24h.736v.64c.155-.219.363-.387.624-.504.267-.117.568-.176.904-.176Z"/><circle cx="239.5" cy="43" r="25.5" fill="#ED147D"/><path fill="#fff" fill-rule="evenodd" d="M240.514 31.967c-.593-.743-1.486-.743-2.086 0l-.361.45a62.433 62.433 0 0 0-1.24 1.568c-.147.188-.276.22-.488.156a55.483 55.483 0 0 0-.699-.197l-1.542-.416c-1.152-.277-1.828.197-1.893 1.144a71.93 71.93 0 0 0-.128 2.663c-.009.188-.073.27-.237.335-.827.31-1.656.628-2.477.956-.853.342-1.121 1.185-.618 1.96.448.752.926 1.488 1.414 2.222.114.165.106.279 0 .442a94.84 94.84 0 0 0-1.453 2.263c-.456.736-.172 1.585.633 1.896.835.325 1.665.644 2.501.955.18.066.237.155.244.335.013.276.032.553.05.83.039.573.077 1.146.071 1.719-.007.866.748 1.626 1.771 1.299.488-.156.984-.287 1.48-.417.331-.087.662-.173.99-.268.161-.05.259-.016.372.122.546.686 1.097 1.372 1.658 2.05.608.743 1.486.743 2.086 0 .553-.686 1.097-1.364 1.642-2.058.105-.13.194-.179.365-.13.853.235 1.706.463 2.566.693.877.237 1.617-.301 1.665-1.209l.004-.06c.047-.87.095-1.733.126-2.604.008-.204.098-.285.269-.35.793-.296 1.578-.607 2.364-.919l.055-.022c.87-.343 1.147-1.193.642-1.976l-.521-.804c-.303-.47-.606-.94-.916-1.403-.115-.163-.107-.277 0-.44.471-.72.934-1.439 1.397-2.166.545-.85.259-1.699-.683-2.042l-2.396-.906c-.17-.066-.235-.156-.243-.343-.041-.884-.089-1.757-.138-2.631-.049-.933-.78-1.463-1.674-1.226l-.564.152c-.656.176-1.311.352-1.961.543-.195.056-.293.008-.414-.14a195.976 195.976 0 0 0-1.596-1.98l-.037-.046Zm2.395 7.559h.137l.136.016a1.158 1.158 0 0 1 .615 1.96l-4.636 4.637-.119.104a1.154 1.154 0 0 1-.553.226l-.148.01-.148-.01a1.152 1.152 0 0 1-.671-.33l-2.319-2.318-.096-.11a1.158 1.158 0 0 1 .984-1.867l.136.016.134.032c.176.054.342.15.481.29l1.499 1.499 3.817-3.817.109-.097c.19-.147.414-.228.642-.241Z" clip-rule="evenodd"/><path fill="#1F2F49" d="M122.72 133.168h.768v2.184a2.99 2.99 0 0 1-.968.528 3.61 3.61 0 0 1-1.152.184 3.162 3.162 0 0 1-1.528-.368 2.83 2.83 0 0 1-1.072-1.024 2.859 2.859 0 0 1-.384-1.472c0-.544.128-1.035.384-1.472a2.75 2.75 0 0 1 1.072-1.024 3.225 3.225 0 0 1 1.544-.368c.448 0 .853.075 1.216.224.368.144.68.357.936.64l-.496.496a2.254 2.254 0 0 0-1.624-.648c-.427 0-.811.093-1.152.28a1.99 1.99 0 0 0-.792.768 2.13 2.13 0 0 0-.288 1.104c0 .405.096.773.288 1.104.192.325.456.581.792.768.341.187.723.28 1.144.28.501 0 .939-.12 1.312-.36v-1.824Zm6.02.736c0 .059-.006.136-.016.232h-3.44c.048.373.21.675.488.904.282.224.632.336 1.048.336.506 0 .914-.171 1.224-.512l.424.496a1.848 1.848 0 0 1-.72.512 2.47 2.47 0 0 1-.952.176c-.448 0-.846-.091-1.192-.272a2.02 2.02 0 0 1-.808-.776 2.236 2.236 0 0 1-.28-1.12c0-.411.09-.781.272-1.112.186-.331.44-.587.76-.768.325-.187.69-.28 1.096-.28.405 0 .765.093 1.08.28.32.181.568.437.744.768.181.331.272.709.272 1.136Zm-2.096-1.536a1.34 1.34 0 0 0-.928.336c-.246.224-.39.517-.432.88h2.72a1.345 1.345 0 0 0-.44-.872 1.298 1.298 0 0 0-.92-.344Zm4.378 3.68c-.347 0-.68-.045-1-.136-.32-.096-.571-.216-.752-.36l.32-.608c.187.133.413.24.68.32.267.08.536.12.808.12.672 0 1.008-.192 1.008-.576a.373.373 0 0 0-.136-.304.82.82 0 0 0-.344-.16 6.206 6.206 0 0 0-.576-.12 5.854 5.854 0 0 1-.84-.184 1.295 1.295 0 0 1-.552-.352c-.155-.165-.232-.397-.232-.696 0-.384.16-.691.48-.92.32-.235.749-.352 1.288-.352.283 0 .565.035.848.104.283.069.515.163.696.28l-.328.608c-.347-.224-.755-.336-1.224-.336-.325 0-.573.053-.744.16-.171.107-.256.248-.256.424 0 .139.048.248.144.328.096.08.213.139.352.176.144.037.344.08.6.128.341.059.616.123.824.192.213.064.395.176.544.336.149.16.224.384.224.672 0 .384-.165.691-.496.92-.325.224-.771.336-1.336.336Zm4.64 0c-.432 0-.819-.093-1.16-.28a2.073 2.073 0 0 1-.792-.768 2.19 2.19 0 0 1-.288-1.12c0-.416.096-.787.288-1.112a1.99 1.99 0 0 1 .792-.768c.341-.187.728-.28 1.16-.28.384 0 .725.077 1.024.232.304.155.539.379.704.672l-.584.376a1.3 1.3 0 0 0-.496-.456 1.418 1.418 0 0 0-.656-.152c-.277 0-.528.061-.752.184a1.34 1.34 0 0 0-.52.528 1.587 1.587 0 0 0-.184.776c0 .299.061.563.184.792.128.224.301.397.52.52.224.123.475.184.752.184.24 0 .459-.051.656-.152a1.3 1.3 0 0 0 .496-.456l.584.368c-.165.293-.4.52-.704.68-.299.155-.64.232-1.024.232Zm4.932-4.328c.538 0 .965.157 1.28.472.32.309.48.765.48 1.368V136h-.768v-2.352c0-.411-.099-.72-.296-.928-.198-.208-.48-.312-.848-.312-.416 0-.744.123-.984.368-.24.24-.36.587-.36 1.04V136h-.768v-5.936h.768v2.296c.16-.203.368-.36.624-.472a2.19 2.19 0 0 1 .872-.168Zm7.133.04V136h-.728v-.64c-.155.219-.36.389-.616.512a1.924 1.924 0 0 1-.824.176c-.565 0-1.011-.155-1.336-.464-.325-.315-.488-.776-.488-1.384v-2.44h.768v2.352c0 .411.099.723.296.936.197.208.48.312.848.312.405 0 .725-.123.96-.368s.352-.592.352-1.04v-2.192h.768Zm-2.736-.752a.406.406 0 0 1-.288-.112.403.403 0 0 1-.12-.296c0-.117.04-.216.12-.296.08-.08.176-.12.288-.12.112 0 .208.04.288.12.08.08.12.179.12.296 0 .117-.04.216-.12.296a.406.406 0 0 1-.288.112Zm1.488 0a.406.406 0 0 1-.288-.112.403.403 0 0 1-.12-.296c0-.117.04-.216.12-.296.08-.08.176-.12.288-.12.112 0 .208.04.288.12.08.08.12.179.12.296 0 .117-.04.216-.12.296a.406.406 0 0 1-.288.112Zm5.094 4.744a1.191 1.191 0 0 1-.416.224 1.825 1.825 0 0 1-.512.072c-.427 0-.757-.115-.992-.344-.235-.229-.352-.557-.352-.984v-2.328h-.72v-.632h.72v-.928h.768v.928h1.216v.632h-1.216v2.296c0 .229.056.405.168.528.117.123.283.184.496.184a.926.926 0 0 0 .6-.2l.24.552Zm4.072-.384V136h-3.552v-.496l2.504-3.112h-2.456v-.632h3.44v.504l-2.504 3.104h2.568Zm3.428.384a1.191 1.191 0 0 1-.416.224 1.825 1.825 0 0 1-.512.072c-.427 0-.757-.115-.992-.344-.235-.229-.352-.557-.352-.984v-2.328h-.72v-.632h.72v-.928h.768v.928h1.216v.632h-1.216v2.296c0 .229.056.405.168.528.117.123.283.184.496.184a.926.926 0 0 0 .6-.2l.24.552Zm4.62-1.848c0 .059-.006.136-.016.232h-3.44c.048.373.21.675.488.904.282.224.632.336 1.048.336.506 0 .914-.171 1.224-.512l.424.496a1.848 1.848 0 0 1-.72.512 2.47 2.47 0 0 1-.952.176c-.448 0-.846-.091-1.192-.272a2.02 2.02 0 0 1-.808-.776 2.236 2.236 0 0 1-.28-1.12c0-.411.09-.781.272-1.112.186-.331.44-.587.76-.768.325-.187.69-.28 1.096-.28.405 0 .765.093 1.08.28.32.181.568.437.744.768.181.331.272.709.272 1.136Zm-2.096-1.536a1.34 1.34 0 0 0-.928.336c-.246.224-.39.517-.432.88h2.72a1.345 1.345 0 0 0-.44-.872 1.298 1.298 0 0 0-.92-.344Zm7.247 1.144-1.024 1.04V136h-.8v-5.6h.8v3.128l3.04-3.128h.912l-2.392 2.52 2.544 3.08h-.936l-2.144-2.488Zm5.442 2.536c-.421 0-.8-.093-1.136-.28a2.073 2.073 0 0 1-.792-.768 2.246 2.246 0 0 1-.28-1.12 2.2 2.2 0 0 1 .28-1.112 1.99 1.99 0 0 1 .792-.768c.336-.187.715-.28 1.136-.28.422 0 .798.093 1.128.28.336.181.598.437.784.768.192.325.288.696.288 1.112 0 .416-.096.789-.288 1.12a2.01 2.01 0 0 1-.784.768c-.33.187-.706.28-1.128.28Zm0-.672c.272 0 .515-.061.728-.184.219-.128.39-.304.512-.528.123-.229.184-.491.184-.784 0-.293-.061-.552-.184-.776a1.284 1.284 0 0 0-.512-.528 1.43 1.43 0 0 0-.728-.184c-.272 0-.517.061-.736.184a1.362 1.362 0 0 0-.512.528 1.598 1.598 0 0 0-.184.776c0 .293.062.555.184.784.128.224.299.4.512.528.219.123.464.184.736.184Zm5.526-3.656c.539 0 .966.157 1.28.472.32.309.48.765.48 1.368V136h-.768v-2.352c0-.411-.098-.72-.296-.928-.197-.208-.48-.312-.848-.312-.416 0-.744.123-.984.368-.24.24-.36.587-.36 1.04V136h-.768v-4.24h.736v.64c.155-.219.363-.387.624-.504a2.23 2.23 0 0 1 .904-.176Zm5.566 4.032a1.191 1.191 0 0 1-.416.224 1.83 1.83 0 0 1-.512.072c-.427 0-.758-.115-.992-.344-.235-.229-.352-.557-.352-.984v-2.328h-.72v-.632h.72v-.928h.768v.928h1.216v.632h-1.216v2.296c0 .229.056.405.168.528.117.123.282.184.496.184a.93.93 0 0 0 .6-.2l.24.552Zm4.62-1.848c0 .059-.006.136-.016.232h-3.44c.048.373.21.675.488.904.282.224.632.336 1.048.336.506 0 .914-.171 1.224-.512l.424.496a1.848 1.848 0 0 1-.72.512 2.47 2.47 0 0 1-.952.176c-.448 0-.846-.091-1.192-.272a2.02 2.02 0 0 1-.808-.776 2.236 2.236 0 0 1-.28-1.12c0-.411.09-.781.272-1.112.186-.331.44-.587.76-.768.325-.187.69-.28 1.096-.28.405 0 .765.093 1.08.28.32.181.568.437.744.768.181.331.272.709.272 1.136Zm-2.096-1.536a1.34 1.34 0 0 0-.928.336c-.246.224-.39.517-.432.88h2.72a1.345 1.345 0 0 0-.44-.872 1.298 1.298 0 0 0-.92-.344Zm5.426-.648c.539 0 .965.157 1.28.472.32.309.48.765.48 1.368V136h-.768v-2.352c0-.411-.099-.72-.296-.928-.197-.208-.48-.312-.848-.312-.416 0-.744.123-.984.368-.24.24-.36.587-.36 1.04V136h-.768v-4.24h.736v.64c.155-.219.363-.387.624-.504a2.23 2.23 0 0 1 .904-.176Z"/><circle cx="157" cy="95.5" r="25.5" fill="#ED147D"/><path fill="#fff" fill-rule="evenodd" d="M166.791 87.509c.393.196.641.598.641 1.037v6.182c0 6.276-4.368 12.074-10.157 13.489a1.163 1.163 0 0 1-.55 0c-5.791-1.415-10.157-7.213-10.157-13.49v-6.18c0-.44.248-.842.641-1.038l9.273-4.636c.326-.164.71-.164 1.036 0l9.273 4.636Zm-1.677 7.219v-5.465L157 85.206l-8.114 4.057v5.465c0 5.137 3.47 9.883 8.114 11.165 4.644-1.282 8.114-6.028 8.114-11.165Zm-9.273 1.452-1.499-1.5a1.158 1.158 0 1 0-1.639 1.64l2.318 2.318a1.156 1.156 0 0 0 1.639 0l4.637-4.636a1.158 1.158 0 1 0-1.639-1.64l-3.817 3.818Z" clip-rule="evenodd"/></svg>
