<svg xmlns:xlink="http://www.w3.org/1999/xlink" xmlns="http://www.w3.org/2000/svg" viewBox="0 0 119 156" width="119"  height="156" ><g fill="#1F2F49" fill-rule="evenodd"><path d="M103.656 144.648a2.98 2.98 0 01-1.844-.636c-2.213-1.729-21.096-16.48-23.195-18.167-.161-.014-.418.023-.517.088-1.423 1.102-22.77 17.404-23.676 18.098a3 3 0 01-3.643-4.768c.223-.17 22.238-16.983 23.649-18.077 2.273-1.767 5.806-1.8 7.878-.072.708.587 14.26 11.19 23.197 18.17a3 3 0 01-1.85 5.364z"/><path d="M72.47 128.628a2.992 2.992 0 01-1.876-.66L38.604 102.3a3 3 0 013.756-4.68l31.99 25.67a3 3 0 01-1.88 5.34M83.79 128.628a3 3 0 01-1.881-5.339l31.9-25.623a3 3 0 113.757 4.678l-31.9 25.623a2.988 2.988 0 01-1.876.661"/><path d="M113.464 104.296h-6V63.78c0-.976-.808-1.8-1.764-1.8H51.302c-.956 0-1.764.824-1.764 1.8v39.993h-6V63.78c0-4.3 3.483-7.8 7.764-7.8H105.7c4.282 0 7.764 3.5 7.764 7.8v40.516z"/><path d="M111.484 155.979H44.775c-4.02 0-7.293-3.253-7.293-7.252V99.959h6v48.768c0 .679.592 1.252 1.293 1.252h66.71c.7 0 1.293-.573 1.293-1.252v-45.768h-3.214v-6h6.214a3 3 0 013 3v48.768c0 3.999-3.273 7.252-7.294 7.252"/><path d="M69.126 75.844a6.573 6.573 0 00-4.763 2.02c-2.735 2.828-2.674 7.494.14 10.401l14.225 14.677 14.22-14.679c2.81-2.906 2.872-7.573.138-10.4a6.576 6.576 0 00-4.764-2.019c-1.89 0-3.675.77-5.025 2.166l-2.434 2.496c-.565.58-1.34.906-2.148.906h-.005a2.997 2.997 0 01-2.15-.913l-2.41-2.488c-1.35-1.397-3.133-2.167-5.022-2.167h-.002zm9.602 34.41a3.003 3.003 0 01-2.155-.913L60.192 92.44c-5.04-5.208-5.102-13.617-.141-18.748a12.524 12.524 0 019.075-3.847h.004c3.528.001 6.843 1.42 9.333 3.995l.26.268.269-.277c2.484-2.567 5.8-3.986 9.329-3.986 3.452 0 6.676 1.365 9.077 3.847 4.959 5.128 4.897 13.537-.138 18.745l-16.378 16.905a3 3 0 01-2.154.912zM13.905 87.037c-.255 0-.512.064-.75.189a1.561 1.561 0 00-.761.902c-.066.206-.142.613.085 1.038.636 1.192 1.766 1.525 4.836 2.174.822.174 1.697.358 2.618.595.315-.897.649-1.727.962-2.506 1.169-2.911 1.52-4.036.883-5.23-.362-.676-1.254-.907-1.99-.514a1.539 1.539 0 00-.818 1.184 3.002 3.002 0 01-4.373 2.336 1.489 1.489 0 00-.692-.168zm8.049 11.684c-.37 0-.74-.07-1.091-.205-1.635-.64-3.238-.978-4.79-1.305-3.223-.682-6.878-1.454-8.887-5.22a7.272 7.272 0 01-.51-5.684 7.52 7.52 0 013.654-4.373c1.184-.631 2.498-.906 3.784-.895a7.579 7.579 0 012.849-2.646c3.653-1.951 8.188-.615 10.108 2.98 2.01 3.766.619 7.23-.608 10.29-.59 1.47-1.2 2.99-1.58 4.705a3.001 3.001 0 01-2.93 2.353zM11.146 39.169c-.253 0-.508.018-.764.055-2.776.404-4.72 2.895-4.332 5.552.515 3.542 3.076 5.277 7.936 8.285 1.8 1.114 3.768 2.33 5.775 3.824 1.499-2.004 3.038-3.731 4.446-5.312 3.802-4.27 5.762-6.66 5.246-10.203a4.74 4.74 0 00-1.938-3.17 5.158 5.158 0 00-3.796-.916h-.001c-1.703.248-3.16 1.298-3.896 2.808a2.996 2.996 0 01-4.907.714 5.097 5.097 0 00-3.77-1.637zm9.249 25.075c-.72 0-1.423-.26-1.973-.742-2.517-2.198-5.097-3.794-7.593-5.338C5.803 55.052 1.055 52.114.112 45.64c-.863-5.93 3.357-11.472 9.405-12.353a11.199 11.199 0 016.992 1.248 11.192 11.192 0 016.344-3.19c2.912-.422 5.823.285 8.185 1.998 2.386 1.73 3.932 4.275 4.352 7.163.942 6.474-2.771 10.643-6.703 15.057-1.952 2.192-3.97 4.459-5.755 7.283a3.003 3.003 0 01-2.537 1.398zM57.886 6.708c-2.596 0-5.078 1.325-6.38 3.687-2.443 4.433-1.03 8.614 1.676 15.625 1.08 2.794 2.27 5.875 3.218 9.33 3.424-1.044 6.665-1.686 9.604-2.266 7.371-1.457 11.66-2.496 14.105-6.93.928-1.684 1.126-3.646.553-5.523-.58-1.907-1.878-3.495-3.655-4.476-2.228-1.228-4.888-1.289-7.113-.162a3.001 3.001 0 01-4.342-2.392c-.234-2.484-1.705-4.699-3.934-5.926a7.714 7.714 0 00-3.733-.966M54.255 42.24a3.002 3.002 0 01-2.938-2.39c-.9-4.338-2.339-8.066-3.73-11.67-2.697-6.986-5.245-13.585-1.334-20.684 3.53-6.404 11.722-8.681 18.261-5.076a13.674 13.674 0 016.162 7.02 13.677 13.677 0 019.228 1.46c3.154 1.738 5.462 4.574 6.5 7.983 1.046 3.44.676 7.05-1.038 10.165-3.913 7.099-10.852 8.47-18.198 9.922-3.79.748-7.71 1.523-11.86 3.08a2.993 2.993 0 01-1.053.19"/></g></svg>